<svg xmlns="http://www.w3.org/2000/svg" viewBox="0 0 24 24"><path fill="#CCC" d="M14.479 20.356c-.168-.56-.982-6.364-1.324-12.903l-.025-.474h-2.26l-.025.474c-.342 6.54-1.156 12.342-1.324 12.903L9.328 21h5.344l-.193-.644z"/><path fill="#0277BD" d="M7 16.581L4.5 9.162 2 16.582l-1-.5L4.5 6 8 16.081z"/><path fill="#CCC" d="M12 1c-1.203 0-2 1.779-2 2.5 0 .841.878 1.5 2 1.5s2-.659 2-1.5c0-.721-.797-2.5-2-2.5z"/><path fill="#0277BD" d="M22 14.5l-2.5-7.419L17 14.5l-1-.5 3.5-10.081L23 14z"/><path fill="#E6E6E6" d="M15 20H9c-1.103 0-2 .897-2 2v1h10v-1c0-1.103-.897-2-2-2z"/><path fill="#039BE5" d="M16 14v.5c0 1.93 1.57 3.5 3.5 3.5s3.5-1.57 3.5-3.5V14h-7z"/><path fill="#E6E6E6" d="M19.143 2.963L4.293 5.077a1.501 1.501 0 0 0 .423 2.97 1.472 1.472 0 0 0 1.048-.689c2.087.718 4.33.934 6.518.622s4.281-1.144 6.085-2.417c.32.29.755.433 1.2.37a1.502 1.502 0 0 0 1.273-1.697 1.502 1.502 0 0 0-1.697-1.273z"/><path d="M19.53 5.685a1.472 1.472 0 0 1-1.198-.37 14.005 14.005 0 0 1-6.085 2.418c-2.188.311-4.43.096-6.518-.622A1.472 1.472 0 0 1 4.68 7.8c-.777.11-1.494-.4-1.667-1.152.003.042 0 .084.005.126.117.819.878 1.39 1.697 1.273a1.472 1.472 0 0 0 1.048-.689c2.087.718 4.33.934 6.518.622s4.281-1.144 6.085-2.417c.32.29.755.433 1.2.37a1.502 1.502 0 0 0 1.273-1.697c-.006-.042-.021-.08-.03-.122.044.77-.503 1.46-1.28 1.571z" opacity=".1"/><path fill="#FFF" d="M12 1.25c1.14 0 1.906 1.587 1.985 2.368.004-.04.015-.078.015-.118 0-.721-.797-2.5-2-2.5s-2 1.779-2 2.5c0 .04.011.078.015.118.079-.781.845-2.368 1.985-2.368zM15 20H9c-1.103 0-2 .897-2 2v.25c0-1.103.897-2 2-2h6c1.103 0 2 .897 2 2V22c0-1.103-.897-2-2-2z" opacity=".2"/><path d="M7 22.75h10V23H7zM19.5 17.75c-1.93 0-3.5-1.57-3.5-3.5v.25c0 1.93 1.57 3.5 3.5 3.5s3.5-1.57 3.5-3.5v-.25c0 1.93-1.57 3.5-3.5 3.5z" opacity=".1"/><path fill="#FFF" d="M4.264 5.334l14.979-2.133a1.513 1.513 0 0 1 1.525.743 1.502 1.502 0 0 0-1.625-.981L4.293 5.077c-.718.103-1.245.7-1.286 1.397a1.513 1.513 0 0 1 1.257-1.14z" opacity=".2"/><path fill="#039BE5" d="M1 16.081v.5c0 1.93 1.57 3.5 3.5 3.5s3.5-1.57 3.5-3.5v-.5H1z"/><path d="M4.5 19.831c-1.93 0-3.5-1.57-3.5-3.5v.25c0 1.93 1.57 3.5 3.5 3.5s3.5-1.57 3.5-3.5v-.25c0 1.93-1.57 3.5-3.5 3.5z" opacity=".1"/><linearGradient id="a" x1="4.258" x2="5.94" y1="7.709" y2="9.391" gradientUnits="userSpaceOnUse"><stop offset="0" stop-color="#3E2723" stop-opacity=".2"/><stop offset="1" stop-color="#3E2723" stop-opacity=".02"/></linearGradient><path fill="url(#a)" d="M4.716 8.047a1.49 1.49 0 0 1-.877-.142l-.025.07 2.101 2.101L5.16 7.9a1.452 1.452 0 0 1-.444.147z"/><linearGradient id="b" x1="11.606" x2="13.635" y1="7.567" y2="9.596" gradientUnits="userSpaceOnUse"><stop offset="0" stop-color="#3E2723" stop-opacity=".2"/><stop offset="1" stop-color="#3E2723" stop-opacity=".02"/></linearGradient><path fill="url(#b)" d="M12.282 7.98a13.9 13.9 0 0 1-1.482.122l2.563 2.563c-.07-.926-.132-1.89-.186-2.867-.298.062-.593.139-.895.182z"/><linearGradient id="c" x1="19.292" x2="20.917" y1="5.603" y2="7.227" gradientUnits="userSpaceOnUse"><stop offset="0" stop-color="#3E2723" stop-opacity=".2"/><stop offset="1" stop-color="#3E2723" stop-opacity=".02"/></linearGradient><path fill="url(#c)" d="M20.13 5.732a1.456 1.456 0 0 1-1.291.113l-.009.003L20.882 7.9l-.753-2.168z"/><linearGradient id="d" x1="2.268" x2="22.157" y1="7.81" y2="17.084" gradientUnits="userSpaceOnUse"><stop offset="0" stop-color="#FFF" stop-opacity=".2"/><stop offset="1" stop-color="#FFF" stop-opacity="0"/></linearGradient><path fill="url(#d)" d="M20.13 5.732c.498-.302.797-.883.71-1.496a1.502 1.502 0 0 0-1.697-1.273l-5.169.736c.011-.066.026-.13.026-.199 0-.721-.797-2.5-2-2.5s-2 1.779-2 2.5c0 .268.097.513.254.728l-5.961.85a1.498 1.498 0 1 0-.454 2.827L1 16.08v.5c0 1.93 1.57 3.5 3.5 3.5s3.5-1.57 3.5-3.5v-.5l-2.84-8.18c.247-.124.459-.307.604-.543 1.62.558 3.334.803 5.044.743-.32 5.59-.962 10.51-1.213 11.899H9c-1.103 0-2 .897-2 2v1h10v-1c0-1.103-.897-2-2-2h-.595c-.256-1.413-.916-6.488-1.23-12.202a13.993 13.993 0 0 0 5.192-2.235c.136.124.296.213.465.279L16 14v.5c0 1.93 1.57 3.5 3.5 3.5s3.5-1.57 3.5-3.5V14l-2.87-8.268zM2.168 16.082L4.5 9.161l2.331 6.92H2.17zm15-2.082L19.5 7.081 21.831 14H17.17z"/></svg>